<svg viewBox="0 0 257 256" fill="none" xmlns="http://www.w3.org/2000/svg">
<path fill-rule="evenodd" clip-rule="evenodd" d="M125.488 101V122H116.453H107.418V143V164H104.406H101.395V167V170H98.3828H95.3711V173V176H125.488H155.605V173V170H158.617H161.629V146V122H152.594H143.559V101V80H134.523H125.488V101ZM137.535 89V92H134.523H131.512V89V86H134.523H137.535V89ZM155.605 131V134H134.523H113.441V131V128H134.523H155.605V131ZM155.605 152V164H152.594H149.582V167V170H146.57H143.559V167V164H140.547H137.535V167V170H134.523H131.512V167V164H128.5H125.488V167V170H122.477H119.465V167V164H116.453H113.441V167V170H110.43H107.418V167V164H110.43H113.441V152V140H134.523H155.605V152ZM119.465 161V164H122.477H125.488V161V158H122.477H119.465V161ZM131.512 161V164H134.523H137.535V161V158H134.523H131.512V161ZM143.559 161V164H146.57H149.582V161V158H146.57H143.559V161Z" fill="black"/>
<path d="M155.605 131V134H134.523H113.441V131V128H134.523H155.605V131Z" fill="white"/>
<path d="M155.605 164V152V140H134.523H113.441V152V164H116.453H119.465V161V158H122.477H125.488V161V164H128.5H131.512V161V158H134.523H137.535V161V164H140.547H143.559V161V158H146.57H149.582V161V164H152.594H155.605Z" fill="white"/>
<path d="M113.441 167V164H110.43H107.418V167V170H110.43H113.441V167Z" fill="white"/>
<path d="M125.488 167V164H122.477H119.465V167V170H122.477H125.488V167Z" fill="white"/>
<path d="M137.535 167V164H134.523H131.512V167V170H134.523H137.535V167Z" fill="white"/>
<path d="M149.582 167V164H146.57H143.559V167V170H146.57H149.582V167Z" fill="white"/>
<path d="M137.535 89V92H134.523H131.512V89V86H134.523H137.535V89Z" fill="white"/>
</svg>
