<svg viewBox="0 0 256 256" fill="none" xmlns="http://www.w3.org/2000/svg">
<path fill-rule="evenodd" clip-rule="evenodd" d="M24 153V103H27V99H30V96H227V99H230V103H233V153H230V156H227V160H30V156H27V153H24ZM58 114H55V141H58V144H75V141H77V135H73V139H63V115H73V118H77V114H75V109H58V114ZM107 144H85V140H84V127H86V126H84V120H85V117H102V120H107V144ZM109 144V117H131V120H134V144H125V121H120V144H109ZM144 120H138V141H144V144H153V141H158V135H152V139H149V121H152V126H158V120H153V117H144V120ZM165 120H162V140H165V144H183V141H184V140H185V136H182V139H171V134H185V120H183V117H165V120ZM200 109H191V143H200V109Z" fill="white"/>
<path d="M171 121H179V127H171V121Z" fill="white"/>
<path d="M87 121H98V124H87V121Z" fill="white"/>
<path d="M93 129H98V139H93V129Z" fill="white"/>
<path fill-rule="evenodd" clip-rule="evenodd" d="M20 102H23V94H29V92H228V94H234V102H237V154H234V162H228V164H29V162H23V154H20V102ZM24 103V153H27V156H30V160H227V156H230V153H233V103H230V99H227V96H30V99H27V103H24Z" fill="black"/>
<path d="M55 114H58V109H75V114H77V118H73V115H63V139H73V135H77V141H75V144H58V141H55V114Z" fill="black"/>
<path fill-rule="evenodd" clip-rule="evenodd" d="M85 144H107V120H102V117H85V120H84V126H86V127H84V140H85V144ZM98 129H93V139H98V129ZM98 121H87V124H98V121Z" fill="black"/>
<path d="M109 117V144H120V121H125V144H134V120H131V117H109Z" fill="black"/>
<path d="M138 120H144V117H153V120H158V126H152V121H149V139H152V135H158V141H153V144H144V141H138V120Z" fill="black"/>
<path fill-rule="evenodd" clip-rule="evenodd" d="M162 120H165V117H183V120H185V134H171V139H182V136H185V140H184V141H183V144H165V140H162V120ZM179 121H171V127H179V121Z" fill="black"/>
<path d="M191 109H200V143H191V109Z" fill="black"/>
</svg>
