<svg viewBox="0 0 256 256" fill="none" xmlns="http://www.w3.org/2000/svg">
<path fill-rule="evenodd" clip-rule="evenodd" d="M113 80V86H110H107V92V98H104H101V104V110H104H107V116V122H110H113V116V110H116H119V104V98H122H125V92V86H122H119V80V74H116H113V80ZM137 86V92H134H131V98V104H128H125V110V116H128H131V122V128H134H137V122V116H140H143V110V104H146H149V98V92H146H143V86V80H140H137V86ZM119 92V98H116H113V104V110H110H107V104V98H110H113V92V86H116H119V92ZM143 98V104H140H137V110V116H134H131V110V104H134H137V98V92H140H143V98ZM89 152V170H92H95V173V176H98H101V179V182H119H137V179V176H140H143V173V170H152H161V167V164H164H167V152V140H164H161V137V134H125H89V152ZM107 152V164H110H113V167V170H110H107V167V164H104H101V152V140H104H107V152ZM155 152V158H152H149V152V146H152H155V152Z" fill="black"/>
<path d="M107 164V152V140H104H101V152V164H104H107Z" fill="white"/>
<path d="M110 164H107V167V170H110H113V167V164H110Z" fill="white"/>
<path d="M155 152V158H152H149V152V146H152H155V152Z" fill="white"/>
<path d="M137 110V104H134H131V110V116H134H137V110Z" fill="white"/>
<path d="M143 104V98V92H140H137V98V104H140H143Z" fill="white"/>
<path d="M113 104V98H110H107V104V110H110H113V104Z" fill="white"/>
<path d="M119 98V92V86H116H113V92V98H116H119Z" fill="white"/>
</svg>
