<svg viewBox="0 0 256 256" fill="none" xmlns="http://www.w3.org/2000/svg">
<path d="M98 122V128H104V134H110V116H104V122H98Z" fill="black"/>
<path d="M86 122H98V116H86V122Z" fill="black"/>
<path d="M98 104V92H92V104H98Z" fill="black"/>
<path d="M98 92H110V86H98V92Z" fill="black"/>
<path d="M134 86V80H122V86H134Z" fill="black"/>
<path d="M152 92V86H134V116H140V92H152Z" fill="black"/>
<path d="M164 110V104H158V92H152V122H158V110H164Z" fill="black"/>
<path d="M170 104V98H164V104H170Z" fill="black"/>
<path d="M170 128H176V104H170V128Z" fill="black"/>
<path d="M158 158H164V146H158V158Z" fill="black"/>
<path d="M158 176V158H152V176H158Z" fill="black"/>
<path d="M110 176H116V164H110V176Z" fill="black"/>
<path d="M92 140V134H86V140H92Z" fill="black"/>
<path d="M86 134V122H80V134H86Z" fill="black"/>
<path d="M92 152H98V140H92V152Z" fill="black"/>
<path d="M104 158V152H98V158H104Z" fill="black"/>
<path d="M110 164V158H104V164H110Z" fill="black"/>
<path d="M164 146H170V128H164V146Z" fill="black"/>
<path d="M122 116V86H116V92H110V104H116V116H122Z" fill="black"/>
<path d="M152 158H158V146H164V128H170V104H164V110H158V122H152V92H140V116H134V86H122V116H116V104H110V92H98V104H104V116H110V134H104V128H98V122H86V134H92V140H98V152H104V158H110V164H116V176H152V158Z" fill="white"/>
<path fill-rule="evenodd" clip-rule="evenodd" d="M104 104V116H98V104H104Z" fill="black"/>
<path d="M98 116V122H104V116H98Z" fill="white"/>
</svg>
