<svg viewBox="0 0 256 256" fill="none" xmlns="http://www.w3.org/2000/svg">
<path fill-rule="evenodd" clip-rule="evenodd" d="M62.6547 92.2046C68.3968 93.3844 71.5039 99.0922 70.7403 105.91C69.8916 113.487 67.4101 119.825 64.6583 124.779C66.682 125.119 68.6534 126.017 70.2803 127.636C72.2792 129.625 73.4264 132.371 73.8134 135.583C74.0931 137.905 73.8987 140.347 73.626 142.536C73.4872 143.65 73.3182 144.768 73.1587 145.821L73.1527 145.861L73.1526 145.861L73.1524 145.863C72.9925 146.919 72.8428 147.907 72.7227 148.86C72.4724 150.847 72.3999 152.344 72.5546 153.446C72.7004 154.486 72.9777 154.712 73.0611 154.775C73.4398 155.065 74.2644 155.424 75.7594 155.557C77.2074 155.686 78.9682 155.573 80.8701 155.236C83.2099 154.821 85.5032 154.115 87.3881 153.328C85.5004 150.214 84.7213 146.593 84.7127 143.186C84.6997 138.012 86.439 132.591 89.6859 128.863C94.0248 123.881 100.362 122.511 105.413 124.754C107.932 125.873 110.046 127.877 111.224 130.603C112.403 133.333 112.529 136.511 111.584 139.833C109.755 146.265 105.482 151.048 101.202 154.287C106.752 156.116 114.955 155.671 122.953 147.56C122.382 144.586 122.242 141.766 122.289 139.665L122.29 139.644L122.291 139.615L122.292 139.57C122.29 139.515 122.289 139.459 122.289 139.403C122.289 131.396 122.734 125.741 124.829 115.27C126.35 107.662 128.889 101.575 132.097 97.6252C135.245 93.7491 140.065 90.9631 145.169 93.4205C149.781 95.6412 150.82 100.676 150.797 105.058C150.772 109.688 149.595 115.472 147.814 121.841C144.757 132.768 135.787 144.792 131.885 149.713C131.871 149.731 131.856 149.749 131.842 149.767C131.947 150.042 132.058 150.313 132.176 150.579C133.641 153.884 135.809 155.888 139.401 155.978C144.618 156.108 149.269 153.759 153.289 150.354C154.161 149.616 154.988 148.84 155.769 148.048C155.68 147.722 155.597 147.391 155.519 147.058C155.292 146.135 155.12 145.212 155.007 144.298C154.424 140.203 154.514 135.777 154.915 131.488C155.508 125.147 156.83 118.657 158.086 113.186C159.529 106.903 161.809 101.606 164.684 98.0055C167.46 94.5275 171.74 91.6453 176.647 93.3291C178.153 93.8457 179.641 94.6918 180.857 96.0731C182.071 97.4533 182.806 99.1328 183.176 100.992C183.881 104.529 183.347 109.154 181.867 115.055C179.215 125.626 172.998 138.042 169.303 143.77C169.28 143.805 169.256 143.84 169.233 143.875C169.163 144.009 169.085 144.141 168.998 144.27C168.003 145.753 166.68 147.639 165.045 149.652C165.45 150.397 165.904 151.116 166.402 151.787C168.424 154.513 170.648 155.814 172.525 155.892C176.024 156.037 178.981 154.836 181.636 152.169C184.405 149.386 186.9 144.934 188.953 138.608C188.985 138.508 189.021 138.41 189.061 138.314C189.086 138.135 189.124 137.956 189.175 137.777C189.839 135.455 191.354 132.122 193.878 129.29C196.447 126.408 200.313 123.797 205.506 123.797C205.66 123.797 205.812 123.799 205.961 123.801C206.014 123.799 206.067 123.798 206.121 123.798C207.103 123.798 208.035 123.868 208.917 124.001C210.08 124.151 211.12 124.38 212.072 124.674C213.877 125.233 215.194 125.98 216.209 126.591C216.373 126.69 216.522 126.781 216.66 126.864C217.429 127.33 217.834 127.576 218.353 127.778C218.84 127.966 219.516 128.138 220.7 128.107C224.406 128.009 227.619 125.311 228.657 123.998C230.027 122.265 232.542 121.971 234.275 123.34C236.009 124.71 236.303 127.226 234.933 128.959C233.139 131.229 228.123 135.717 221.369 136.086C221.986 138.673 222.07 141.196 221.898 143.154C221.804 146.392 220.891 151.145 218.328 155.307C215.622 159.7 211.005 163.482 203.925 163.797C200.472 163.951 197.417 163.207 194.895 161.567C192.396 159.942 190.712 157.627 189.654 155.11C188.912 156.082 188.13 156.984 187.306 157.812C183.191 161.947 178.102 164.131 172.194 163.885C166.939 163.667 162.744 160.284 159.977 156.553C159.764 156.267 159.558 155.975 159.356 155.677C159.062 155.941 158.763 156.201 158.459 156.459C153.584 160.588 147.084 164.173 139.201 163.975C132.523 163.809 128.315 160.101 125.844 155.769C113.967 165.729 100.971 164.28 93.3171 159.351C90.2653 161.024 86.1978 162.416 82.2673 163.113C79.894 163.534 77.3961 163.734 75.0497 163.525C72.7504 163.321 70.2449 162.691 68.2058 161.133C65.8712 159.351 64.9506 156.829 64.6321 154.558C64.3225 152.35 64.5192 149.973 64.7855 147.86C64.9183 146.806 65.081 145.732 65.2359 144.709L65.2361 144.708L65.2489 144.623C65.4106 143.556 65.5637 142.54 65.6873 141.547C65.9394 139.525 66.0307 137.867 65.8708 136.54C65.6405 134.629 65.0541 133.721 64.6368 133.306C64.2417 132.913 63.6957 132.654 62.8724 132.622C61.023 132.551 58.2853 133.717 56.282 136.092C54.5007 138.203 52.7857 142.315 51.3658 147.265C49.9944 152.045 49.0593 157.01 48.5641 160.307C48.2359 162.492 46.1989 163.997 44.0142 163.669C41.8296 163.34 40.3246 161.303 40.6528 159.119C41.0146 156.71 41.5943 153.469 42.4001 150C41.1298 150.911 39.8168 151.815 38.5238 152.683C34.2337 155.563 29.8067 158.279 27.023 159.911C25.1171 161.028 22.6665 160.388 21.5496 158.482C20.4326 156.576 21.0723 154.125 22.9782 153.009C25.6458 151.445 29.9318 148.816 34.0647 146.041C38.2972 143.2 42.0293 140.428 43.8438 138.555C43.9874 138.406 44.1397 138.271 44.2991 138.15C44.5157 136.08 44.7342 133.874 44.96 131.595L44.9601 131.595C45.2524 128.645 45.5568 125.572 45.8849 122.513C46.3486 118.188 46.8569 113.929 47.4384 110.236C48.0078 106.62 48.6874 103.269 49.5626 100.909C51.8402 94.7663 57.1215 91.0676 62.6547 92.2046ZM207.806 131.925C207.163 131.846 206.406 131.797 205.506 131.797C203.244 131.797 201.395 132.88 199.85 134.613C198.259 136.398 197.259 138.604 196.868 139.975C196.858 140.007 196.849 140.038 196.839 140.07C196.826 140.296 196.793 140.525 196.74 140.753C195.75 144.991 195.842 149.171 197.021 151.992C197.583 153.337 198.343 154.266 199.256 154.86C200.157 155.446 201.5 155.897 203.569 155.805C207.532 155.628 209.934 153.68 211.516 151.112C213.201 148.375 213.856 145.016 213.903 142.834L213.906 142.685L213.921 142.538C214.119 140.476 213.822 137.553 212.612 135.32C211.737 133.705 210.36 132.337 207.806 131.925ZM53.4397 127.202C56.9542 122.798 61.648 115.216 62.79 105.02C63.024 102.93 62.6316 101.663 62.2397 100.996C61.8639 100.356 61.4176 100.117 61.0446 100.041C60.4434 99.9173 58.3832 100.131 57.0635 103.69C56.488 105.242 55.9037 107.907 55.3411 111.48C54.7906 114.977 54.2988 119.081 53.8393 123.366C53.7037 124.63 53.5707 125.914 53.4397 127.202ZM94.3232 149.322C93.2774 147.68 92.7187 145.561 92.7127 143.166C92.7037 139.586 93.9537 136.143 95.7184 134.117C97.9637 131.54 100.611 131.375 102.165 132.065C102.948 132.413 103.542 132.994 103.879 133.776C104.215 134.554 104.412 135.806 103.889 137.645C102.393 142.907 98.2495 146.883 94.3232 149.322ZM130.291 138.459C134.083 133.023 138.354 125.96 140.109 119.686C141.844 113.483 142.778 108.54 142.797 105.015C142.817 101.242 141.834 100.694 141.699 100.628L141.697 100.628C141.522 100.543 140.452 100.028 138.307 102.668C136.217 105.242 134.053 109.94 132.673 116.839C130.765 126.381 130.325 131.489 130.291 138.459ZM162.614 139.38C165.958 134.18 171.723 122.612 174.107 113.108C175.528 107.442 175.671 104.267 175.33 102.555C175.178 101.789 174.958 101.48 174.85 101.358C174.744 101.236 174.542 101.064 174.051 100.896C173.946 100.86 172.907 100.528 170.936 102.997C169.062 105.343 167.166 109.391 165.883 114.977C164.652 120.341 163.424 126.423 162.88 132.233C162.643 134.766 162.545 137.167 162.614 139.38Z" fill="black"/>
</svg>
