<svg viewBox="0 0 256 256" fill="none" xmlns="http://www.w3.org/2000/svg">
<path fill-rule="evenodd" clip-rule="evenodd" d="M20 96H23V89H26V85H30V82H36V80H221V82H227V85H231V89H234V96H237V160H234V167H231V171H227V174H221V176H36V174H30V171H26V167H23V160H20V96ZM35 94V101H32V155H35V162H41V165H216V162H222V155H225V101H222V94H216V91H41V94H35Z" fill="black"/>
<path fill-rule="evenodd" clip-rule="evenodd" d="M37 104V98H43V94H214V97H220V104H223V152H220V159H214V163H43V159H37V152H34V104H37ZM41 105H38V151H41V155H44V158H213V155H216V151H219V105H216V101H213V98H44V101H41V105Z" fill="black"/>
<path d="M129 111H134V122H139V119H142V115H145V111H151V114H148V117H145V121H142V124H139V128H142V131H145V135H148V139H151V141H145V137H143V134H140V131H134V141H129V111Z" fill="black"/>
<path fill-rule="evenodd" clip-rule="evenodd" d="M38 105H41V101H44V98H213V101H216V105H219V151H216V155H213V158H44V155H41V151H38V105ZM106 115H103V137H106V141H117V137H122V115H117V111H106V115ZM134 111H129V141H134V131H140V134H143V137H145V141H151V139H148V135H145V131H142V128H139V124H142V121H145V117H148V114H151V111H145V115H142V119H139V122H134V111Z" fill="white"/>
<path fill-rule="evenodd" clip-rule="evenodd" d="M35 101V94H41V91H216V94H222V101H225V155H222V162H216V165H41V162H35V155H32V101H35ZM37 98V104H34V152H37V159H43V163H214V159H220V152H223V104H220V97H214V94H43V98H37Z" fill="white"/>
<path fill-rule="evenodd" clip-rule="evenodd" d="M106 115H103V137H106V141H117V137H122V115H117V111H106V115ZM116 114H108V138H116V114Z" fill="black"/>
<path d="M108 114H116V138H108V114Z" fill="white"/>
</svg>
