<svg viewBox="0 0 256 256" fill="none" xmlns="http://www.w3.org/2000/svg">
<path fill-rule="evenodd" clip-rule="evenodd" d="M92 83V86H95H98V83V80H95H92V83ZM104 89V92H107H110V89V86H107H104V89ZM92 95V98H95H98V95V92H95H92V95ZM116 95V98H119H122V95V92H119H116V95ZM128 95V98H131H134V101V104H131H128V107V110H125H122V143V176H143H164V143V110H161H158V107V104H155H152V101V98H149H146V95V92H143H140V95V98H137H134V95V92H131H128V95ZM104 101V104H107H110V101V98H107H104V101ZM92 107V110H95H98V107V104H95H92V107ZM152 107V110H143H134V107V104H143H152V107ZM158 119V122H149H140V140V158H149H158V164V170H143H128V143V116H143H158V119ZM158 137V146H152H146V137V128H152H158V137Z" fill="black"/>
<path d="M158 119V122H149H140V140V158H149H158V164V170H143H128V143V116H143H158V119Z" fill="white"/>
<path d="M158 137V146H152H146V137V128H152H158V137Z" fill="white"/>
<path d="M152 110V107V104H143H134V107V110H143H152Z" fill="white"/>
</svg>
