<svg viewBox="0 0 256 256" fill="none" xmlns="http://www.w3.org/2000/svg">
<path d="M113 185H119V95H113V185Z" fill="black"/>
<path d="M95 185H101V95H95V185Z" fill="black"/>
<path d="M107 95V89H101V95H107Z" fill="black"/>
<path d="M125 95V89H119V95H125Z" fill="black"/>
<path d="M137 95H143V89H137V95Z" fill="black"/>
<path d="M131 185H137V95H131V185Z" fill="black"/>
<path d="M149 185H155V95H149V185Z" fill="black"/>
<path d="M161 95V89H155V95H161Z" fill="black"/>
<path d="M155 191H161V185H155V191Z" fill="black"/>
<path d="M143 191V185H137V191H143Z" fill="black"/>
<path d="M125 191V185H119V191H125Z" fill="black"/>
<path d="M107 191V185H101V191H107Z" fill="black"/>
<path d="M83 203V209H173V203H83Z" fill="black"/>
<path d="M77 65H179V59H149V53H143V59H113V53H107V59H77V65Z" fill="black"/>
<path d="M143 47H113V53H143V47Z" fill="black"/>
<path d="M185 77V65H179V71H77V65H71V77H77V203H83V77H173V203H179V77H185Z" fill="black"/>
<path fill-rule="evenodd" clip-rule="evenodd" d="M173 203V77H83V203H173ZM161 191H155V185H149V95H155V89H161V95H155V185H161V191ZM143 185V191H137V185H131V95H137V89H143V95H137V185H143ZM125 185V191H119V185H113V95H119V89H125V95H119V185H125ZM107 185V191H101V185H95V95H101V89H107V95H101V185H107Z" fill="white"/>
<path d="M77 71H179V65H77V71Z" fill="white"/>
<path d="M113 59H143V53H113V59Z" fill="white"/>
</svg>
