<svg viewBox="0 0 256 256" fill="none" xmlns="http://www.w3.org/2000/svg">
<path fill-rule="evenodd" clip-rule="evenodd" d="M105.885 56.832L105.769 57.639L105.635 59.139L105.5 60.639L103.25 60.959L101 61.278V63.139V65L98.81 65.319L96.621 65.639L96.56 69.639L96.5 73.639L94.25 73.959L92 74.278V94.139V114L94.25 114.319L96.5 114.639V116.639V118.639L94.25 118.959L92 119.278V157.139V195L94.25 195.319L96.5 195.639V197.639V199.639L103.175 199.933L109.849 200.227L110.175 197.933L110.5 195.639L112.5 195.352L114.5 195.065L114.281 157.352L114.063 119.639L111.972 119.312L109.881 118.984L110.191 116.812L110.5 114.639L112.5 114.352L114.5 114.065L114.287 85.352L114.073 56.639L110.037 56.332L106 56.024L105.885 56.832ZM132.982 56.639L132.965 57.139L132.941 83.389L132.916 109.639L134.958 109.959L137 110.278V112.151V114.024L141.25 114.332L145.5 114.639L145.82 116.889L146.139 119.139H141.57H137V157.069V195L139.25 195.319L141.5 195.639V197.639V199.639L148.175 199.933L154.849 200.227L155.175 197.933L155.5 195.639L157.5 195.352L159.5 195.065L159.281 157.352L159.061 119.639L154.781 119.139L150.5 118.639V116.639V114.639L155 114.139L159.5 113.639V112.139V110.639L161.75 110.319L164 110V83V56L161.919 56.319L159.838 56.639L159.669 72.139L159.5 87.639H155H150.5L150.331 72.139L150.162 56.639L148.107 56.323L146.051 56.007L145.776 71.823L145.5 87.639H141.5H137.5L137.225 71.889L136.949 56.139H134.975H133L132.982 56.639Z" fill="black"/>
</svg>
