<svg viewBox="0 0 256 256" fill="none" xmlns="http://www.w3.org/2000/svg">
<path fill-rule="evenodd" clip-rule="evenodd" d="M125 128V176H122H119V173V170H116H113V167V164H110H107V161V158H104H101V155V152H86H71V128V104H86H101V101V98H104H107V95V92H110H113V89V86H116H119V83V80H122H125V128ZM173 95V98H176H179V104V110H182H185V128V146H182H179V152V158H176H173V161V164H170H167V161V158H170H173V152V146H176H179V128V110H176H173V104V98H170H167V95V92H170H173V95ZM113 101V104H110H107V107V110H95H83V113V116H95H107V113V110H110H113V107V104H116H119V101V98H116H113V101ZM155 101V104H158H161V107V110H164H167V128V146H164H161V149V152H158H155V155V158H152H149V155V152H152H155V149V146H158H161V128V110H158H155V107V104H152H149V101V98H152H155V101ZM143 113V116H146H149V128V140H146H143V143V146H140H137V143V140H140H143V128V116H140H137V113V110H140H143V113Z" fill="black"/>
<path d="M107 110H95H83V113V116H95H107V113V110Z" fill="white"/>
<path d="M113 104H110H107V107V110H110H113V107V104Z" fill="white"/>
<path d="M113 101V104H116H119V101V98H116H113V101Z" fill="white"/>
</svg>
