<svg viewBox="0 0 256 256" fill="none" xmlns="http://www.w3.org/2000/svg">
<path fill-rule="evenodd" clip-rule="evenodd" d="M107 92V104H104H101V107V110H98H95V128V146H98H101V149V152H104H107V164V176H125H143V164V152H146H149V149V146H152H155V140V134H158H161V128V122H158H155V116V110H152H149V107V104H146H143V92V80H125H107V92ZM143 107V110H146H149V128V146H146H143V149V152H125H107V149V146H104H101V128V110H104H107V107V104H125H143V107ZM125 119V128H119H113V131V134H122H131V122V110H128H125V119Z" fill="black"/>
<path fill-rule="evenodd" clip-rule="evenodd" d="M143 110V107V104H125H107V107V110H104H101V128V146H104H107V149V152H125H143V149V146H146H149V128V110H146H143ZM125 128V119V110H128H131V122V134H122H113V131V128H119H125Z" fill="white"/>
</svg>
